# xmcd
#
# Track frame offsets:
#	150
#	15120
#	40837
#	60560
#	74482
#	92162
#	109185
#	133680
#	146667
#	166257
#	184312
#	204142
#	224692
#	242292
#	258365
#	272652
#	291155
#	310662
#	332892
#
# Disc length: 4680 seconds
#
# Revision: 2
# Processed by: cddbd v1.5.2PL0 Copyright (c) Steve Scherf et al.
# Submitted via: audiograbber 1.83.01
#
DISCID=16124613
DTITLE=Barry Manilow - The Magic of... (His Greatest Hits)
DYEAR=1993
DGENRE=Easy Listening
TTITLE0=Mandy
TTITLE1=Copacabana
TTITLE2=Could It Be Magic
TTITLE3=Let`s Hang On
TTITLE4=You`re Lookin` Hot Tonight
TTITLE5=Bermuda Triangle
TTITLE6=Read `Em And Weep
TTITLE7=Hey Mambo
TTITLE8=Lonely Together
TTITLE9=Ships
TTITLE10=I Made It Through The Rain
TTITLE11=The Old Songs
TTITLE12=I Write The Songs
TTITLE13=Looks Like We Made It
TTITLE14=Can`t Smile Without You
TTITLE15=The Best Of Me
TTITLE16=Another Life
TTITLE17=If Tomorrow Never Comes
TTITLE18=Copacabana (Remix)
EXTD=
EXTT0=
EXTT1=
EXTT2=
EXTT3=
EXTT4=
EXTT5=
EXTT6=
EXTT7=
EXTT8=
EXTT9=
EXTT10=
EXTT11=
EXTT12=
EXTT13=
EXTT14=
EXTT15=
EXTT16=
EXTT17=
EXTT18=
PLAYORDER=
